<svg width="167" height="35" viewBox="0 0 167 35" fill="none" xmlns="http://www.w3.org/2000/svg">
<path d="M1 22.26C1 22.26 27 0.261554 51 17.7609C75 35.2603 97.5 7.26185 117.5 17.7609C137.5 28.26 166.5 22.26 166.5 22.26" stroke="#1188EE" stroke-width="2"/>
<path d="M1 12.26C1 12.26 27 -9.73845 51 7.76093C75 25.2603 97.5 -2.73815 117.5 7.76093C137.5 18.26 166.5 12.26 166.5 12.26" stroke="#1188EE" stroke-width="2"/>
<path d="M1 32.26C1 32.26 27 10.2616 51 27.7609C75 45.2603 97.5 17.2619 117.5 27.7609C137.5 38.26 166.5 32.26 166.5 32.26" stroke="#1188EE" stroke-width="2"/>
</svg>
